# xmcd
#
# Track frame offsets: 
#        150
#        20013
#        45394
#        63721
#        85699
#        114892
#        135805
#        149654
#        167504
#        183478
#        195013
#        210600
#        226115
#        242200
#
# Disc length: 3640 seconds
#
# Revision: 1
# Processed by: cddbd v1.5.2PL0 Copyright (c) Steve Scherf et al.
# Submitted via: ExactAudioCopyFreeDBPlugin 1.0
#
DISCID=b00e360e
DTITLE=Enchantment - Enchantment
DYEAR=1976
DGENRE=Soul
TTITLE0=Come On And Ride
TTITLE1=Gloria
TTITLE2=Dance To The Music
TTITLE3=Sunshine
TTITLE4=Hold On
TTITLE5=My Rose
TTITLE6=Sexy Lady
TTITLE7=Thank You Girl For Loving Me
TTITLE8=Come On And Ride (Single Version)
TTITLE9=Hold On (Single Version)
TTITLE10=Gloria (Single Version)
TTITLE11=Dance To The Music (Single Version)
TTITLE12=Sunshine (Single Version)
TTITLE13=Hold On (12" Disco Version)
EXTD=
EXTT0=
EXTT1=
EXTT2=
EXTT3=
EXTT4=
EXTT5=
EXTT6=
EXTT7=
EXTT8=
EXTT9=
EXTT10=
EXTT11=
EXTT12=
EXTT13=
PLAYORDER=
